<svg width="16" height="16" viewBox="0 0 16 16" fill="none" xmlns="http://www.w3.org/2000/svg">
  <path d="M12.626 5.79807C12.759 5.79807 12.8796 5.85607 12.9749 5.95407C13.0637 6.05873 13.1084 6.18873 13.0955 6.32606C13.0955 6.3714 12.7402 10.8647 12.5372 12.756C12.4101 13.9167 11.6619 14.6213 10.5396 14.6406C9.67662 14.66 8.83309 14.6666 8.00253 14.6666C7.12075 14.6666 6.25842 14.66 5.42137 14.6406C4.33665 14.6146 3.58779 13.8973 3.46719 12.756C3.25842 10.858 2.9096 6.3714 2.90311 6.32606C2.89663 6.18873 2.94072 6.05873 3.03019 5.95407C3.11837 5.85607 3.24545 5.79807 3.37901 5.79807H12.626ZM9.37649 1.33331C9.96585 1.33331 10.4923 1.74464 10.6447 2.3313L10.7536 2.81796C10.8418 3.21463 11.1854 3.49529 11.5809 3.49529H13.5247C13.7841 3.49529 14 3.71062 14 3.98462V4.23795C14 4.50528 13.7841 4.72728 13.5247 4.72728H2.4759C2.21591 4.72728 2 4.50528 2 4.23795V3.98462C2 3.71062 2.21591 3.49529 2.4759 3.49529H4.41971C4.81457 3.49529 5.1582 3.21463 5.24703 2.81863L5.34882 2.36397C5.50702 1.74464 6.02766 1.33331 6.62351 1.33331H9.37649Z" fill="#FF005C"/>
</svg>
