<svg width="16" height="16" viewBox="0 0 16 16" fill="none" xmlns="http://www.w3.org/2000/svg">
  <path fill-rule="evenodd" clip-rule="evenodd" d="M10.8353 9.02313C10.4673 9.02313 10.166 8.72513 10.166 8.35647C10.166 7.9878 10.4613 7.6898 10.8293 7.6898H10.8353C11.2033 7.6898 11.502 7.9878 11.502 8.35647C11.502 8.72513 11.2033 9.02313 10.8353 9.02313ZM8.16929 9.02313C7.80129 9.02313 7.49996 8.72513 7.49996 8.35647C7.49996 7.9878 7.79529 7.6898 8.16329 7.6898H8.16929C8.53729 7.6898 8.83596 7.9878 8.83596 8.35647C8.83596 8.72513 8.53729 9.02313 8.16929 9.02313ZM5.50263 9.02313C5.13463 9.02313 4.83329 8.72513 4.83329 8.35647C4.83329 7.9878 5.12863 7.6898 5.49663 7.6898H5.50263C5.87063 7.6898 6.16929 7.9878 6.16929 8.35647C6.16929 8.72513 5.87063 9.02313 5.50263 9.02313ZM8.16663 1.85645C3.36729 1.85645 1.66663 3.55778 1.66663 8.35647C1.66663 13.1551 3.36729 14.8565 8.16663 14.8565C12.966 14.8565 14.6666 13.1551 14.6666 8.35647C14.6666 3.55778 12.966 1.85645 8.16663 1.85645Z" fill="#FCFAF9"/>
</svg>
