<svg width="211" height="50" viewBox="0 0 211 50" fill="none" xmlns="http://www.w3.org/2000/svg">
  <g clip-path="url(#clip0_76_3598)">
    <path d="M49.6631 20.5041L44.171 5.42647C43.386 3.26844 41.3136 1.81834 39.0157 1.81834C38.4648 1.81834 37.9196 1.90112 37.4001 2.06097C36.8777 2.22368 36.381 2.46346 35.9243 2.77746L32.3761 5.20667L24.9828 0.779287C24.1322 0.268326 23.1588 0 22.1654 0C20.9894 0 19.8219 0.388216 18.8799 1.09329L12.8054 5.64341L7.55307 3.51393C6.88511 3.24275 6.18575 3.10573 5.48068 3.10573C3.70231 3.10573 2.02384 3.98493 0.9905 5.45787C-0.0428411 6.93652 -0.279767 8.76342 0.339666 10.4676L9.3343 35.1821C12.5599 44.0454 20.8638 50 29.9954 50C32.4246 50 34.8167 49.5775 37.1061 48.744C48.2273 44.6963 53.8593 32.0279 49.6631 20.5041Z" fill="#FCFAF9"/>
    <path d="M46.9799 21.4803L41.4878 6.40265C40.8997 4.78984 38.9501 4.16469 37.5342 5.13523L33.8661 7.64722C33.0184 8.22669 31.9108 8.26095 31.0316 7.73286L23.5128 3.22841C22.5965 2.68034 21.4404 2.74028 20.5869 3.3797L14.4097 8.0069C13.6732 8.55782 12.6998 8.68627 11.8463 8.33802L6.47405 6.15716C4.36455 5.3008 2.23792 7.35035 3.01721 9.49125L12.0118 34.2058C15.6742 44.268 26.4701 49.5775 36.1269 46.0635C45.781 42.5496 50.6394 31.5425 46.977 21.4803H46.9799ZM35.0479 25.0028C35.4961 22.0883 37.7426 20.0159 40.0633 20.3727C42.3869 20.7296 43.9055 23.3814 43.4574 26.2959C43.0092 29.2104 40.7627 31.2828 38.442 30.9259C36.1184 30.5691 34.5998 27.9173 35.0479 25.0028ZM22.0341 25.0028C22.4823 22.0883 24.7288 20.0159 27.0495 20.3727C29.3731 20.7296 30.8917 23.3814 30.4436 26.2959C29.9954 29.2104 27.7489 31.2828 25.4282 30.9259C23.1074 30.5691 21.5859 27.9173 22.0341 25.0028Z" fill="#FF005C"/>
  </g>
  <path d="M84.8325 38.5C84.5325 38.5 84.3825 38.35 84.3825 38.05V14.956C84.3825 14.656 84.5325 14.506 84.8325 14.506H90.8085C91.1085 14.506 91.2585 14.656 91.2585 14.956V23.038H92.3385L93.5085 18.538L94.3545 14.74C94.3785 14.644 94.4445 14.584 94.5525 14.56C94.6605 14.524 94.7865 14.506 94.9305 14.506H100.636C100.936 14.506 101.086 14.656 101.086 14.956V18.61C101.086 18.73 101.062 18.844 101.014 18.952C100.978 19.048 100.942 19.144 100.906 19.24L98.4585 24.856L97.6665 26.35L98.4765 27.862L101.356 33.874C101.416 33.97 101.452 34.072 101.464 34.18C101.488 34.276 101.5 34.402 101.5 34.558V38.05C101.5 38.35 101.35 38.5 101.05 38.5H95.2185C95.1345 38.5 95.0325 38.482 94.9125 38.446C94.7925 38.41 94.7145 38.338 94.6785 38.23L93.4905 33.91L92.4645 30.724H91.2585V38.05C91.2585 38.35 91.1085 38.5 90.8085 38.5H84.8325ZM104.309 38.5C104.009 38.5 103.859 38.35 103.859 38.05V14.956C103.859 14.656 104.009 14.506 104.309 14.506H114.803C115.103 14.506 115.343 14.584 115.523 14.74L119.663 18.844C119.795 18.964 119.873 19.066 119.897 19.15C119.933 19.234 119.951 19.372 119.951 19.564V24.496C119.951 24.652 119.867 24.814 119.699 24.982L117.431 27.232L116.495 28.042L117.971 30.112L120.131 34.45C120.191 34.558 120.233 34.666 120.257 34.774C120.281 34.87 120.293 34.99 120.293 35.134V38.05C120.293 38.35 120.143 38.5 119.843 38.5H114.533C114.269 38.5 114.089 38.38 113.993 38.14L111.347 30.94H110.609V38.05C110.609 38.35 110.459 38.5 110.159 38.5H104.309ZM111.905 24.712C112.613 24.712 113.129 24.538 113.453 24.19C113.777 23.83 113.939 23.272 113.939 22.516C113.939 21.76 113.777 21.208 113.453 20.86C113.129 20.5 112.613 20.32 111.905 20.32C111.221 20.32 110.711 20.5 110.375 20.86C110.039 21.208 109.871 21.76 109.871 22.516C109.871 23.272 110.039 23.83 110.375 24.19C110.711 24.538 111.221 24.712 111.905 24.712ZM122.801 38.5C122.501 38.5 122.351 38.35 122.351 38.05V14.956C122.351 14.656 122.501 14.506 122.801 14.506H135.347C135.647 14.506 135.797 14.656 135.797 14.956V20.266C135.797 20.566 135.647 20.716 135.347 20.716H129.227V23.704H135.095C135.395 23.704 135.545 23.854 135.545 24.154V28.852C135.545 29.152 135.395 29.302 135.095 29.302H129.227V32.29H135.347C135.647 32.29 135.797 32.44 135.797 32.74V38.05C135.797 38.35 135.647 38.5 135.347 38.5H122.801ZM138.849 38.5C138.549 38.5 138.399 38.35 138.399 38.05V21.364C138.399 21.184 138.459 21.004 138.579 20.824L142.845 14.776C142.977 14.596 143.169 14.506 143.421 14.506H149.667C149.931 14.506 150.123 14.596 150.243 14.776L154.527 20.824C154.647 20.992 154.707 21.172 154.707 21.364V38.05C154.707 38.35 154.557 38.5 154.257 38.5H148.281C147.981 38.5 147.831 38.35 147.831 38.05V30.922H145.275V38.05C145.275 38.35 145.125 38.5 144.825 38.5H138.849ZM146.553 25.666C147.309 25.666 147.861 25.474 148.209 25.09C148.569 24.694 148.749 24.064 148.749 23.2C148.749 22.336 148.569 21.706 148.209 21.31C147.861 20.914 147.309 20.716 146.553 20.716C145.797 20.716 145.245 20.914 144.897 21.31C144.549 21.706 144.375 22.336 144.375 23.2C144.375 24.064 144.549 24.694 144.897 25.09C145.245 25.474 145.797 25.666 146.553 25.666ZM160.77 38.5C160.47 38.5 160.32 38.35 160.32 38.05V20.716H157.782C157.482 20.716 157.332 20.566 157.332 20.266V14.956C157.332 14.656 157.482 14.506 157.782 14.506H169.734C170.034 14.506 170.184 14.656 170.184 14.956V20.266C170.184 20.566 170.034 20.716 169.734 20.716H167.196V38.05C167.196 38.35 167.046 38.5 166.746 38.5H160.77ZM177.462 38.5C177.186 38.5 176.946 38.398 176.742 38.194L173.142 34.594C172.938 34.402 172.836 34.162 172.836 33.874V19.114C172.836 18.838 172.938 18.598 173.142 18.394L176.742 14.794C176.946 14.602 177.186 14.506 177.462 14.506H184.716C185.004 14.506 185.244 14.602 185.436 14.794L189.036 18.394C189.24 18.598 189.342 18.838 189.342 19.114V33.874C189.342 34.162 189.24 34.402 189.036 34.594L185.436 38.194C185.244 38.398 185.004 38.5 184.716 38.5H177.462ZM180.468 32.29H181.71C182.202 32.29 182.448 31.948 182.448 31.264V21.724C182.448 21.052 182.202 20.716 181.71 20.716H180.468C179.964 20.716 179.712 21.052 179.712 21.724V31.264C179.712 31.948 179.964 32.29 180.468 32.29ZM192.446 38.5C192.146 38.5 191.996 38.35 191.996 38.05V14.956C191.996 14.656 192.146 14.506 192.446 14.506H202.94C203.24 14.506 203.48 14.584 203.66 14.74L207.8 18.844C207.932 18.964 208.01 19.066 208.034 19.15C208.07 19.234 208.088 19.372 208.088 19.564V24.496C208.088 24.652 208.004 24.814 207.836 24.982L205.568 27.232L204.632 28.042L206.108 30.112L208.268 34.45C208.328 34.558 208.37 34.666 208.394 34.774C208.418 34.87 208.43 34.99 208.43 35.134V38.05C208.43 38.35 208.28 38.5 207.98 38.5H202.67C202.406 38.5 202.226 38.38 202.13 38.14L199.484 30.94H198.746V38.05C198.746 38.35 198.596 38.5 198.296 38.5H192.446ZM200.042 24.712C200.75 24.712 201.266 24.538 201.59 24.19C201.914 23.83 202.076 23.272 202.076 22.516C202.076 21.76 201.914 21.208 201.59 20.86C201.266 20.5 200.75 20.32 200.042 20.32C199.358 20.32 198.848 20.5 198.512 20.86C198.176 21.208 198.008 21.76 198.008 22.516C198.008 23.272 198.176 23.83 198.512 24.19C198.848 24.538 199.358 24.712 200.042 24.712Z" fill="#FCFAF9"/>
  <defs>
    <clipPath id="clip0_76_3598">
      <rect width="51.0505" height="50" fill="white"/>
    </clipPath>
  </defs>
</svg>
