<svg width="264" height="50" viewBox="0 0 264 50" fill="none" xmlns="http://www.w3.org/2000/svg">
  <path d="M49.6631 29.4959L44.171 44.5735C43.386 46.7316 41.3136 48.1817 39.0157 48.1817C38.4648 48.1817 37.9196 48.0989 37.4001 47.939C36.8777 47.7763 36.381 47.5365 35.9243 47.2225L32.3761 44.7933L24.9828 49.2207C24.1322 49.7317 23.1588 50 22.1654 50C20.9894 50 19.8219 49.6118 18.8799 48.9067L12.8054 44.3566L7.55307 46.4861C6.88511 46.7572 6.18575 46.8943 5.48068 46.8943C3.70231 46.8943 2.02384 46.0151 0.9905 44.5421C-0.0428411 43.0635 -0.279767 41.2366 0.339666 39.5324L9.3343 14.8179C12.5599 5.95456 20.8638 0 29.9954 0C32.4246 0 34.8167 0.422471 37.1061 1.25599C48.2273 5.30372 53.8593 17.9721 49.6631 29.4959Z" fill="#FCFAF9"/>
  <path d="M36.1298 3.9364C26.4758 0.422471 15.6799 5.7319 12.0176 15.7941L3.02293 40.5087C2.24364 42.6496 4.37027 44.6991 6.47977 43.8428L11.852 41.6619C12.7055 41.3165 13.6789 41.4421 14.4154 41.993L20.5926 46.6202C21.4461 47.2597 22.6022 47.3196 23.5185 46.7715L31.0373 42.2671C31.9165 41.739 33.0241 41.7732 33.8719 42.3527L37.5399 44.8647C38.9558 45.8352 40.9054 45.2072 41.4935 43.5973L46.9856 28.5196C50.648 18.4574 45.7895 7.45033 36.1355 3.9364H36.1298ZM30.4436 24.9971C29.9954 27.9116 27.7489 29.984 25.4282 29.6272C23.1046 29.2704 21.586 26.6185 22.0341 23.704C22.4823 20.7896 24.7288 18.7172 27.0495 19.074C29.3731 19.4308 30.8917 22.0827 30.4436 24.9971ZM43.4574 24.9971C43.0092 27.9116 40.7627 29.984 38.442 29.6272C36.1184 29.2704 34.5998 26.6185 35.0479 23.704C35.4961 20.7896 37.7426 18.7172 40.0633 19.074C42.3841 19.4308 43.9055 22.0827 43.4574 24.9971Z" fill="#8C39FF"/>
  <path d="M89.0084 38.5C88.7204 38.5 88.4804 38.398 88.2884 38.194L84.6884 34.594C84.4844 34.402 84.3824 34.162 84.3824 33.874V19.114C84.3824 18.838 84.4844 18.598 84.6884 18.394L88.2884 14.794C88.4804 14.602 88.7204 14.506 89.0084 14.506H99.7904C100.09 14.506 100.24 14.656 100.24 14.956V20.266C100.24 20.566 100.09 20.716 99.7904 20.716H91.8704C91.7024 20.716 91.5584 20.776 91.4384 20.896C91.3184 21.004 91.2584 21.142 91.2584 21.31V31.678C91.2584 31.846 91.3184 31.99 91.4384 32.11C91.5584 32.23 91.7024 32.29 91.8704 32.29H94.9664V28.726L93.1304 28.708C92.8304 28.708 92.6804 28.558 92.6804 28.258V24.028C92.6804 23.728 92.8304 23.578 93.1304 23.578H100.672C100.972 23.578 101.122 23.728 101.122 24.028V33.874C101.122 34.162 101.02 34.402 100.816 34.594L97.2164 38.194C97.0244 38.398 96.7844 38.5 96.4964 38.5H89.0084Z" fill="#FCFAF9"/>
  <path d="M103.903 38.5C103.603 38.5 103.453 38.35 103.453 38.05V21.364C103.453 21.184 103.513 21.004 103.633 20.824L107.899 14.776C108.031 14.596 108.223 14.506 108.475 14.506H114.721C114.985 14.506 115.177 14.596 115.297 14.776L119.581 20.824C119.701 20.992 119.761 21.172 119.761 21.364V38.05C119.761 38.35 119.611 38.5 119.311 38.5H113.335C113.035 38.5 112.885 38.35 112.885 38.05V30.922H110.329V38.05C110.329 38.35 110.179 38.5 109.879 38.5H103.903ZM111.607 25.666C112.363 25.666 112.915 25.474 113.263 25.09C113.623 24.694 113.803 24.064 113.803 23.2C113.803 22.336 113.623 21.706 113.263 21.31C112.915 20.914 112.363 20.716 111.607 20.716C110.851 20.716 110.299 20.914 109.951 21.31C109.603 21.706 109.429 22.336 109.429 23.2C109.429 24.064 109.603 24.694 109.951 25.09C110.299 25.474 110.851 25.666 111.607 25.666Z" fill="#FCFAF9"/>
  <path d="M122.836 38.5C122.536 38.5 122.386 38.35 122.386 38.05V18.862C122.386 18.586 122.488 18.346 122.692 18.142L126.04 14.794C126.244 14.602 126.484 14.506 126.76 14.506H130.774C131.062 14.506 131.302 14.602 131.494 14.794L134.536 17.836H135.364L138.406 14.794C138.598 14.602 138.838 14.506 139.126 14.506H143.14C143.428 14.506 143.668 14.602 143.86 14.794L147.226 18.142C147.418 18.346 147.514 18.586 147.514 18.862V38.05C147.514 38.35 147.364 38.5 147.064 38.5H141.088C140.788 38.5 140.638 38.35 140.638 38.05V21.58H138.388V38.05C138.388 38.35 138.238 38.5 137.938 38.5H131.962C131.662 38.5 131.512 38.35 131.512 38.05V21.58H129.262V38.05C129.262 38.35 129.112 38.5 128.812 38.5H122.836Z" fill="#FCFAF9"/>
  <path d="M150.645 38.5C150.345 38.5 150.195 38.35 150.195 38.05V14.956C150.195 14.656 150.345 14.506 150.645 14.506H163.191C163.491 14.506 163.641 14.656 163.641 14.956V20.266C163.641 20.566 163.491 20.716 163.191 20.716H157.071V23.704H162.939C163.239 23.704 163.389 23.854 163.389 24.154V28.852C163.389 29.152 163.239 29.302 162.939 29.302H157.071V32.29H163.191C163.491 32.29 163.641 32.44 163.641 32.74V38.05C163.641 38.35 163.491 38.5 163.191 38.5H150.645Z" fill="#FCFAF9"/>
  <path d="M176.653 38.5C176.377 38.5 176.137 38.398 175.933 38.194L172.333 34.594C172.129 34.402 172.027 34.162 172.027 33.874V19.114C172.027 18.838 172.129 18.598 172.333 18.394L175.933 14.794C176.137 14.602 176.377 14.506 176.653 14.506H183.907C184.195 14.506 184.435 14.602 184.627 14.794L188.227 18.394C188.431 18.598 188.533 18.838 188.533 19.114V33.874C188.533 34.162 188.431 34.402 188.227 34.594L184.627 38.194C184.435 38.398 184.195 38.5 183.907 38.5H176.653ZM179.659 32.29H180.901C181.393 32.29 181.639 31.948 181.639 31.264V21.724C181.639 21.052 181.393 20.716 180.901 20.716H179.659C179.155 20.716 178.903 21.052 178.903 21.724V31.264C178.903 31.948 179.155 32.29 179.659 32.29Z" fill="#FCFAF9"/>
  <path d="M191.637 38.5C191.337 38.5 191.187 38.35 191.187 38.05V14.956C191.187 14.656 191.337 14.506 191.637 14.506H204.075C204.387 14.506 204.543 14.656 204.543 14.956V20.266C204.543 20.566 204.393 20.716 204.093 20.716H198.063V24.064H203.715C204.015 24.064 204.165 24.214 204.165 24.514V29.482C204.165 29.782 204.015 29.932 203.715 29.932H198.063V38.05C198.063 38.35 197.913 38.5 197.613 38.5H191.637Z" fill="#FCFAF9"/>
  <path d="M212.801 38.5C212.501 38.5 212.351 38.35 212.351 38.05V14.956C212.351 14.656 212.501 14.506 212.801 14.506H218.777C219.077 14.506 219.227 14.656 219.227 14.956V32.29H222.881C223.181 32.29 223.331 32.44 223.331 32.74V38.05C223.331 38.35 223.181 38.5 222.881 38.5H212.801Z" fill="#FCFAF9"/>
  <path d="M225.844 38.5C225.544 38.5 225.394 38.35 225.394 38.05V14.956C225.394 14.656 225.544 14.506 225.844 14.506H231.82C232.12 14.506 232.27 14.656 232.27 14.956V38.05C232.27 38.35 232.12 38.5 231.82 38.5H225.844Z" fill="#FCFAF9"/>
  <path d="M235.372 38.5C235.072 38.5 234.921 38.35 234.921 38.05V14.956C234.921 14.656 235.072 14.506 235.372 14.506H247.809C248.121 14.506 248.277 14.656 248.277 14.956V20.266C248.277 20.566 248.127 20.716 247.827 20.716H241.798V24.064H247.449C247.749 24.064 247.9 24.214 247.9 24.514V29.482C247.9 29.782 247.749 29.932 247.449 29.932H241.798V38.05C241.798 38.35 241.648 38.5 241.348 38.5H235.372Z" fill="#FCFAF9"/>
  <path d="M250.805 38.5C250.505 38.5 250.355 38.35 250.355 38.05V14.956C250.355 14.656 250.505 14.506 250.805 14.506H263.351C263.651 14.506 263.801 14.656 263.801 14.956V20.266C263.801 20.566 263.651 20.716 263.351 20.716H257.231V23.704H263.099C263.399 23.704 263.549 23.854 263.549 24.154V28.852C263.549 29.152 263.399 29.302 263.099 29.302H257.231V32.29H263.351C263.651 32.29 263.801 32.44 263.801 32.74V38.05C263.801 38.35 263.651 38.5 263.351 38.5H250.805Z" fill="#FCFAF9"/>
</svg>
